<svg id="Capa_1" enable-background="new 0 0 512 512" height="512" viewBox="0 0 512 512" width="512" xmlns="http://www.w3.org/2000/svg" fill="#ff7901"><g><path d="m298.321 280.531c-2.667-3.17-7.398-3.577-10.567-.91-18.784 15.805-44.888 15.813-63.481.022-3.158-2.681-7.891-2.294-10.572.862-2.681 3.157-2.295 7.89.862 10.572 12.148 10.317 26.74 15.474 41.362 15.474 14.607 0 29.245-5.151 41.487-15.452 3.169-2.668 3.576-7.399.909-10.568z"/><path d="m354.5 385h-6.902l-14.612-17.414c-1.522-1.813-3.719-2.722-5.915-2.673-.043-.001-.084-.006-.127-.006h-19.944v-10.793c35.619-15.982 62.445-48.164 71.054-87.114h11.946c20.953 0 38-17.047 38-38 0-13.194-6.762-24.835-17-31.65v-39.148c15.299-13.302 25-32.885 25-54.702v-14c0-9.649-7.851-17.5-17.5-17.5h-13.309c11.551-10.524 18.809-25.68 18.809-42.5v-12c0-9.649-7.851-17.5-17.5-17.5h-139.386c-31.959 0-61.912 15.68-80.124 41.943l-10.902 15.725c-6.271 9.042-16.583 14.441-27.588 14.441-26.191 0-47.5 21.309-47.5 47.5v77.741c-10.237 6.815-17 18.456-17 31.65 0 20.953 17.047 38 38 38h11.946c8.61 38.95 35.435 71.132 71.054 87.114v10.793h-19.944c-2.274 0-4.191.467-6.047 2.679l-14.612 17.414h-6.897c-48.248 0-87.5 39.252-87.5 87.5v12c0 15.164 12.336 27.5 27.5 27.5h270.5c4.142 0 7.5-3.358 7.5-7.5s-3.358-7.5-7.5-7.5h-90.79c-3.096-8.729-11.432-15-21.21-15s-18.114 6.271-21.21 15h-137.29c-6.893 0-12.5-5.607-12.5-12.5v-12c0-39.856 32.33-72.296 72.142-72.491-.607 7.061 2.099 14.301 7.929 19.192l48.261 40.496c5.129 3.963 10.604 5.689 16.424 5.179 5.987-.523 11.412-3.348 15.275-7.952l10.968-13.071 10.968 13.071c4.444 5.296 10.828 8.027 17.254 8.027 5.105 0 10.237-1.724 14.444-5.254l48.261-40.496c5.829-4.891 8.536-12.132 7.929-19.193 39.812.193 72.145 32.634 72.145 72.492v12c0 6.893-5.607 12.5-12.5 12.5h-11.5c-4.142 0-7.5 3.358-7.5 7.5s3.358 7.5 7.5 7.5h11.5c15.164 0 27.5-12.336 27.5-27.5v-12c0-48.248-39.252-87.5-87.5-87.5zm35.5-133h-9.579c.378-3.951.579-7.952.579-12v-3.5h9.5c4.142 0 7.5-3.358 7.5-7.5s-3.358-7.5-7.5-7.5h-9.5v-15.5h9c12.682 0 23 10.318 23 23s-10.318 23-23 23zm6-60.522c-1.955-.312-3.958-.478-6-.478h-9v-7.5c0-3.274-.709-6.383-1.971-9.192 5.964-1.307 11.652-3.351 16.971-6.03zm-274 60.522c-12.682 0-23-10.318-23-23s10.318-23 23-23h9v15.5h-9.5c-4.142 0-7.5 3.358-7.5 7.5s3.358 7.5 7.5 7.5h9.5v3.5c0 4.048.201 8.049.579 12zm24-12v-56.5c0-4.136 3.364-7.5 7.5-7.5h15c4.142 0 7.5-3.358 7.5-7.5s-3.358-7.5-7.5-7.5h-15c-12.407 0-22.5 10.093-22.5 22.5v7.5h-9c-2.042 0-4.045.167-6 .478v-71.869c0-17.92 14.58-32.5 32.5-32.5 15.921 0 30.842-7.811 39.915-20.895l10.902-15.724c15.41-22.222 40.754-35.49 67.797-35.49h139.386c1.378 0 2.5 1.122 2.5 2.5v12c0 23.435-19.065 42.5-42.5 42.5-4.142 0-7.5 3.358-7.5 7.5s3.358 7.5 7.5 7.5h52c1.378 0 2.5 1.122 2.5 2.5v14c0 31.706-25.794 57.5-57.5 57.5h-160c-4.142 0-7.5 3.358-7.5 7.5s3.358 7.5 7.5 7.5h155c4.136 0 7.5 3.364 7.5 7.5v56.5c0 60.654-49.346 110-110 110s-110-49.346-110-110zm110 125c12.511 0 24.594-1.856 36-5.292v32.479l-36.002 30.209-35.998-30.206v-32.482c11.406 3.436 23.489 5.292 36 5.292zm-22.46 82.282c-3.267 3.226-6.789 3.534-10.567.924l-48.261-40.496c-3.168-2.658-3.583-7.398-.924-10.566l11.891-14.172 59.751 50.137zm106.394-44.663c-.174 1.996-1.116 3.804-2.65 5.091l-48.261 40.496c-3.166 2.658-7.907 2.244-10.566-.924l-11.891-14.172 59.751-50.137 11.891 14.171c1.287 1.535 1.9 3.48 1.726 5.475z"/><path d="m247.72 234h16.559c2.231 18.562 18.066 33 37.22 33h12c20.678 0 37.5-16.822 37.5-37.5v-8c0-9.649-7.851-17.5-17.5-17.5h-52c-8.798 0-16.081 6.534-17.3 15h-16.399c-1.22-8.466-8.502-15-17.3-15h-52c-9.649 0-17.5 7.851-17.5 17.5v8c0 20.678 16.822 37.5 37.5 37.5h12c19.154 0 34.989-14.438 37.22-33zm31.28-12.5c0-1.378 1.122-2.5 2.5-2.5h52c1.378 0 2.5 1.122 2.5 2.5v8c0 12.407-10.093 22.5-22.5 22.5h-12c-12.407 0-22.5-10.093-22.5-22.5zm-46 8c0 12.407-10.093 22.5-22.5 22.5h-12c-12.407 0-22.5-10.093-22.5-22.5v-8c0-1.378 1.122-2.5 2.5-2.5h52c1.378 0 2.5 1.122 2.5 2.5z"/></g></svg>